# xmcd
#
# Track frame offsets: 
#        150
#        36354
#        84414
#        114114
#        139008
#        172542
#        216192
#        232218
#        245478
#        254844
#        298116
#
# Disc length: 4592 seconds
#
# Revision: 2
# Processed by: cddbd v1.5.2PL0 Copyright (c) Steve Scherf et al.
# Submitted via: ExactAudioCopy v1.3
#
DISCID=9c11ee0b
DTITLE=Martin Jones - Korngold - The Piano Music [CD 3)
DYEAR=2003
DGENRE=Piano
TTITLE0=Zwischenspiel aus der Oper "Das Wunder der Heliane"
TTITLE1=Piano Trio in D major, Op.1 - I. Allegro non troppo, con espre
TTITLE1=ssione
TTITLE2=Piano Trio in D major, Op.1 - II. Scherzo: Allegro-Trio: Viel 
TTITLE2=langsammer, innig
TTITLE3=Piano Trio in D major, Op.1 - III. Larghetto
TTITLE4=Piano Trio in D major, Op.1 - IV. Finale: Allegro molto ed ene
TTITLE4=rgico
TTITLE5=Potpourri aus der Oper "Der Ring des Polykrates"
TTITLE6=Aus der Musik zu "Viel Lärmen un Nichts", Op.11 - I. Mädchen i
TTITLE6=m Brautgemach
TTITLE7=Aus der Musik zu "Viel Lärmen un Nichts", Op.11 - II. Holzapfe
TTITLE7=l und Schlehwein
TTITLE8=Aus der Musik zu "Viel Lärmen un Nichts", Op.11 - III. Mummens
TTITLE8=chanz
TTITLE9="Schach Brugge!", Op.12
TTITLE10=Geschichten von Strauss, Op.21
EXTD=
EXTT0=
EXTT1=
EXTT2=
EXTT3=
EXTT4=
EXTT5=
EXTT6=
EXTT7=
EXTT8=
EXTT9=
EXTT10=
PLAYORDER=
